# xmcd
#
# Track frame offsets:
#	150
#	12457
#	25677
#	37447
#	48122
#	59372
#	69862
#	81897
#	93220
#	103130
#	113405
#	124060
#	133377
#	144352
#	154665
#	166617
#	176860
#	189192
#	199867
#	211422
#	220652
#	232555
#	242295
#	254452
#	262960
#	273890
#	284880
#
# Disc length: 3910 seconds
#
# Revision: 0
# Processed by: cddbd v1.5PL3 Copyright (c) Steve Scherf et al.
# Submitted via: audiograbber 1.80
#
DISCID=750f441b
DTITLE=skeets mcdonald - Don't Let The Stars Get In... cd3
DYEAR=1900
DGENRE=
TTITLE0=Number One In Your Heart 
TTITLE1=You're Too Late 
TTITLE2=I Can't Stand It Any Longer 
TTITLE3=I Got A New Field To Plow 
TTITLE4=Your Sweet Love Is Gone 
TTITLE5=Strollin' 
TTITLE6=You Turned Me Down 
TTITLE7=It'll Take Me A Long, Long Time 
TTITLE8=Don't Push Me Too Far 
TTITLE9=Fallen Angel (Are You Sorry?) 
TTITLE10=Somebody 
TTITLE11=You Oughta See Grandma Rock 
TTITLE12=Heart-Breakin' Mama 
TTITLE13=You Gotta Be My Baby 
TTITLE14=You Better Not Go 
TTITLE15=I Am Music 
TTITLE16=Welcome Home 
TTITLE17=I Can't Hold A Memory In My Arms 
TTITLE18=Keep Her Off Your Mind 
TTITLE19=Fingertips 
TTITLE20=I'm Hurtin' 
TTITLE21=Bless Your Little Ol' Heart (You're Mine) 
TTITLE22=Love Wind 
TTITLE23=I'll Make Believe 
TTITLE24=The Echo Of Your Footsteps 
TTITLE25=The All American Boy 
TTITLE26=Let's Spend Some Time With Me 
EXTD=
EXTT0=
EXTT1=
EXTT2=
EXTT3=
EXTT4=
EXTT5=
EXTT6=
EXTT7=
EXTT8=
EXTT9=
EXTT10=
EXTT11=
EXTT12=
EXTT13=
EXTT14=
EXTT15=
EXTT16=
EXTT17=
EXTT18=
EXTT19=
EXTT20=
EXTT21=
EXTT22=
EXTT23=
EXTT24=
EXTT25=
EXTT26=
PLAYORDER=
